<?xml version="1.0" encoding="utf-8"?>
<!-- Generator: Adobe Illustrator 15.0.0, SVG Export Plug-In . SVG Version: 6.00 Build 0)  -->
<!DOCTYPE svg PUBLIC "-//W3C//DTD SVG 1.1//EN" "http://www.w3.org/Graphics/SVG/1.1/DTD/svg11.dtd">
<svg version="1.1" id="Ebene_1" xmlns="http://www.w3.org/2000/svg" xmlns:xlink="http://www.w3.org/1999/xlink" x="0px" y="0px"
	 width="41.5px" height="37.5px" viewBox="0 0 41.5 37.5" enable-background="new 0 0 41.5 37.5" xml:space="preserve">
<g id="Ebene_1_1_">
</g>
<g id="Capa_1">
</g>
<g>
	<path fill="#00ACB9" d="M11.35,23.41c-1.11-1.539-1.665-3.598-1.665-6.177c0-2.578,0.555-4.637,1.665-6.176
		c1.109-1.539,2.781-2.309,5.016-2.309c2.235,0,3.907,0.77,5.016,2.309s1.665,3.598,1.665,6.176c0,2.579-0.555,4.638-1.665,6.177
		s-2.781,2.309-5.016,2.309C14.131,25.718,12.458,24.949,11.35,23.41z M13.33,12.803c-0.648,1.125-0.973,2.602-0.973,4.43
		s0.324,3.306,0.973,4.431c0.648,1.125,1.66,1.688,3.035,1.688s2.379-0.559,3.012-1.676s0.949-2.598,0.949-4.442
		c0-1.844-0.316-3.324-0.949-4.441s-1.637-1.676-3.012-1.676S13.978,11.678,13.33,12.803z"/>
	<path fill="#00ACB9" d="M25.108,9.147h5.954v16.384h-2.625V11.608h-3.329V9.147z"/>
</g>
</svg>
