<?xml version="1.0" encoding="utf-8"?>
<!-- Generator: Adobe Illustrator 15.0.0, SVG Export Plug-In . SVG Version: 6.00 Build 0)  -->
<!DOCTYPE svg PUBLIC "-//W3C//DTD SVG 1.1//EN" "http://www.w3.org/Graphics/SVG/1.1/DTD/svg11.dtd">
<svg version="1.1" id="Ebene_1" xmlns="http://www.w3.org/2000/svg" xmlns:xlink="http://www.w3.org/1999/xlink" x="0px" y="0px"
	 width="41.5px" height="37.5px" viewBox="0 0 41.5 37.5" enable-background="new 0 0 41.5 37.5" xml:space="preserve">
<g id="Ebene_1_1_">
</g>
<g id="Capa_1">
</g>
<g>
	<defs>
		<rect id="SVGID_1_" x="7.759" y="9.366" width="27.307" height="16.97"/>
	</defs>
	<clipPath id="SVGID_2_">
		<use xlink:href="#SVGID_1_"  overflow="visible"/>
	</clipPath>
	<path clip-path="url(#SVGID_2_)" fill="#00ACB9" d="M28.831,18.812l-4.971,4.991v2.345h11.205V23.5h-7.431l3.845-3.915
		c1.172-1.203,1.977-2.187,2.414-2.953c0.438-0.766,0.656-1.57,0.656-2.414c0-1.501-0.516-2.684-1.547-3.551
		c-1.031-0.868-2.23-1.301-3.598-1.301c-1.368,0-2.485,0.272-3.352,0.82c-0.867,0.547-1.662,1.358-2.38,2.438l2.228,1.289
		c0.89-1.375,2.007-2.062,3.351-2.062c0.767,0,1.399,0.23,1.899,0.691s0.75,1.02,0.75,1.676s-0.234,1.306-0.703,1.945
		C30.729,16.804,29.94,17.688,28.831,18.812 M14.439,26.336c2.233,0,3.906-0.77,5.016-2.309s1.664-3.599,1.664-6.176
		c0-2.579-0.555-4.638-1.664-6.178c-1.109-1.539-2.782-2.308-5.016-2.308c-2.235,0-3.907,0.769-5.017,2.308
		c-1.11,1.54-1.664,3.599-1.664,6.178c0,2.577,0.554,4.637,1.664,6.176C10.532,25.566,12.204,26.336,14.439,26.336 M14.439,11.733
		c1.375,0,2.379,0.559,3.012,1.676s0.949,2.598,0.949,4.442c0,1.844-0.316,3.323-0.949,4.44c-0.633,1.118-1.637,1.676-3.012,1.676
		s-2.388-0.562-3.035-1.687c-0.649-1.125-0.973-2.603-0.973-4.43c0-1.829,0.323-3.306,0.973-4.431
		C12.052,12.296,13.064,11.733,14.439,11.733"/>
</g>
</svg>
