<?xml version="1.0" encoding="utf-8"?>
<!-- Generator: Adobe Illustrator 15.0.0, SVG Export Plug-In . SVG Version: 6.00 Build 0)  -->
<!DOCTYPE svg PUBLIC "-//W3C//DTD SVG 1.1//EN" "http://www.w3.org/Graphics/SVG/1.1/DTD/svg11.dtd">
<svg version="1.1" id="Ebene_1" xmlns="http://www.w3.org/2000/svg" xmlns:xlink="http://www.w3.org/1999/xlink" x="0px" y="0px"
	 width="80px" height="60px" viewBox="0 0 80 60" enable-background="new 0 0 80 60" xml:space="preserve">
<g id="Ebene_1_1_">
</g>
<g id="Isolationsmodus">
</g>
<g id="Capa_1">
	<g>
		<g>
			<path fill="#00ACB6" d="M61.291,28.471c0-3.822-3.121-6.934-6.945-6.934s-6.947,3.111-6.947,6.934c0,3.444,2.5,6.281,5.779,6.83
				v7.28c0,5.676-4.604,10.283-10.281,10.283c-5.672,0-10.28-4.608-10.28-10.283l-0.024-8.342c2.691-0.357,5.322-1.935,7.662-4.623
				c0.344-0.394,0.447-0.904,0.389-1.389c3.056-4.044,4.95-9.55,4.95-13.783c0-6.535-2.927-7.214-7.767-8.322L37.82,6.111
				c-0.297-0.599-0.898-1.033-1.627-1.033c-1.022,0-1.853,0.828-1.853,1.84c0,1.023,0.828,1.852,1.853,1.852
				c0.404,0,0.785-0.168,1.086-0.409l0.043,0.017c4.698,1.08,5.966,1.372,5.966,6.067c0,3.723-1.761,8.709-4.45,12.308
				c-0.446,0.026-0.888,0.222-1.218,0.588c-1.376,1.593-3.574,3.5-6.171,3.5c-2.596,0-4.793-1.889-6.169-3.477
				c-0.33-0.368-0.771-0.564-1.213-0.589c-2.699-3.612-4.465-8.604-4.465-12.331c0-4.698,1.247-4.989,5.978-6.069l0.015-0.015
				c0.326,0.24,0.679,0.41,1.11,0.41c1.024,0,1.852-0.83,1.852-1.852c-0.001-1.01-0.828-1.838-1.853-1.838
				c-0.731,0-1.33,0.434-1.649,1.03H25.05c-4.848,1.117-7.78,1.784-7.78,8.334c0,4.237,1.904,9.763,4.99,13.807
				c-0.06,0.484,0.045,0.996,0.389,1.389c2.337,2.67,4.943,4.24,7.631,4.599l0.004,8.341c0,6.951,5.666,12.604,12.612,12.604
				c6.947,0,12.59-5.651,12.59-12.604v-7.281C58.766,34.752,61.291,31.914,61.291,28.471z M54.346,33.111
				c-2.549,0-4.641-2.079-4.641-4.638c0-2.549,2.092-4.627,4.641-4.627c2.547,0,4.614,2.078,4.614,4.627
				C58.962,31.032,56.893,33.111,54.346,33.111z"/>
			<path fill="#00ACB6" d="M54.422,26.155c-1.283,0-2.329,1.039-2.329,2.322c0,1.291,1.046,2.328,2.329,2.328
				c1.282,0,2.328-1.038,2.328-2.328C56.75,27.194,55.704,26.155,54.422,26.155z"/>
		</g>
	</g>
</g>
</svg>
