<?xml version="1.0" encoding="utf-8"?>
<!-- Generator: Adobe Illustrator 15.0.0, SVG Export Plug-In . SVG Version: 6.00 Build 0)  -->
<!DOCTYPE svg PUBLIC "-//W3C//DTD SVG 1.1//EN" "http://www.w3.org/Graphics/SVG/1.1/DTD/svg11.dtd">
<svg version="1.1" id="Ebene_1" xmlns="http://www.w3.org/2000/svg" xmlns:xlink="http://www.w3.org/1999/xlink" x="0px" y="0px"
	 width="80px" height="60px" viewBox="0 0 80 60" enable-background="new 0 0 80 60" xml:space="preserve">
<g id="Ebene_1_1_">
</g>
<g id="Layer_1">
	<g>
		<g>
			<path fill="#00ACB6" d="M68.672,44.739v-2.027c0-6.411-2.229-12.674-6.279-17.635c-1.451-1.776-3.112-3.356-4.933-4.715v-0.218
				c0-0.588-0.475-1.064-1.064-1.064c-0.203,0-0.393,0.059-0.556,0.159c-2.549-1.638-5.36-2.86-8.312-3.594v-2.596
				c0-0.59-0.477-1.065-1.064-1.065H35.115c-0.587,0-1.064,0.475-1.064,1.065v2.596c-2.952,0.735-5.761,1.955-8.312,3.592
				c-0.161-0.098-0.351-0.157-0.556-0.157c-0.589,0-1.064,0.476-1.064,1.064v0.218c-1.82,1.358-3.479,2.94-4.931,4.716
				c-4.049,4.959-6.279,11.223-6.279,17.634v2.027c-1.708,0.417-2.98,1.959-2.98,3.791c0,2.152,1.751,3.903,3.901,3.903h53.918
				c2.152,0,3.903-1.751,3.903-3.903C71.651,46.698,70.379,45.156,68.672,44.739z M36.179,14.114h9.22v15.6
				c0,0.705-1.84,1.774-4.608,1.774c-2.773,0-4.612-1.069-4.612-1.774L36.179,14.114L36.179,14.114z M15.036,42.712
				c0-7.703,3.489-14.815,9.082-19.604v9.602c0,0.59,0.475,1.067,1.064,1.067c0.587,0,1.064-0.478,1.064-1.067V21.468
				c2.341-1.615,4.97-2.855,7.806-3.623v12.027c0,2.224,2.897,3.905,6.74,3.905c3.839,0,6.737-1.679,6.737-3.905V17.846
				c2.833,0.767,5.463,2.008,7.806,3.623V32.71c0,0.59,0.477,1.067,1.063,1.067c0.588,0,1.063-0.478,1.063-1.067v-9.602
				c5.594,4.788,9.082,11.901,9.082,19.604v1.91c-5.522-0.083-8.707-0.72-12.066-1.391c-3.536-0.71-7.196-1.44-13.685-1.44
				c-6.49,0-10.149,0.73-13.689,1.44c-3.358,0.671-6.543,1.308-12.066,1.389L15.036,42.712L15.036,42.712z M67.747,50.304H13.83
				c-0.978,0-1.775-0.793-1.775-1.772c0-0.978,0.796-1.773,1.775-1.773c0.044,0,0.088,0,0.132,0c0.003,0,0.006,0,0.009,0
				s0.007,0,0.01,0c6.396-0.014,10.027-0.739,13.538-1.439c3.595-0.719,6.991-1.397,13.272-1.397c6.275,0,9.673,0.679,13.268,1.397
				c3.513,0.7,7.141,1.426,13.537,1.439c0.004,0,0.006,0,0.011,0c0.002,0,0.007,0,0.011,0c0.044,0,0.087,0,0.131,0
				c0.979,0,1.775,0.796,1.775,1.773C69.522,49.511,68.727,50.304,67.747,50.304z"/>
		</g>
	</g>
</g>
<g id="Isolationsmodus">
</g>
<g id="Capa_1">
</g>
</svg>
