<?xml version="1.0" encoding="utf-8"?>
<!-- Generator: Adobe Illustrator 15.0.0, SVG Export Plug-In . SVG Version: 6.00 Build 0)  -->
<!DOCTYPE svg PUBLIC "-//W3C//DTD SVG 1.1//EN" "http://www.w3.org/Graphics/SVG/1.1/DTD/svg11.dtd">
<svg version="1.1" id="Ebene_1" xmlns="http://www.w3.org/2000/svg" xmlns:xlink="http://www.w3.org/1999/xlink" x="0px" y="0px"
	 width="80px" height="60px" viewBox="0 0 80 60" enable-background="new 0 0 80 60" xml:space="preserve">
<g id="Ebene_1_1_">
</g>
<g id="Isolationsmodus">
	<g>
		<g>
			<g>
				<path fill="#00ACB6" d="M20.897,39.266c0.809,4.587,2.88,8.683,5.834,11.529c2.538,2.447,5.473,3.738,8.419,3.738
					c0.584,0,1.169-0.05,1.752-0.153c0.271-0.049,0.555-0.111,0.84-0.188c2.07-0.568,4.255-0.568,6.326,0
					c0.284,0.077,0.567,0.143,0.84,0.188c0.582,0.104,1.169,0.153,1.754,0.153c2.946,0,5.881-1.291,8.419-3.738
					c2.954-2.847,5.026-6.942,5.834-11.529c0.81-4.589,0.265-9.145-1.537-12.833c-1.855-3.794-4.816-6.225-8.335-6.845
					c-2.332-0.413-5.231-0.24-8.165,0.484c-0.378,0.094-0.764,0.159-1.146,0.198c-0.148-0.587-0.399-1.417-0.812-2.404
					c1.646-0.102,4.388-0.572,6.271-2.458c2.799-2.798,2.48-7.48,2.464-7.679c-0.039-0.507-0.439-0.909-0.948-0.947
					c-0.197-0.016-4.881-0.335-7.674,2.464c-1.376,1.375-1.998,3.206-2.272,4.736c-1.139-1.617-2.676-3.327-4.75-4.929
					c-0.448-0.347-1.094-0.264-1.441,0.184c-0.348,0.45-0.265,1.096,0.184,1.444c4.493,3.474,6.209,7.51,6.824,9.521
					c-0.218-0.036-0.433-0.078-0.646-0.13c-2.935-0.725-5.833-0.896-8.163-0.484c-3.518,0.62-6.477,3.051-8.332,6.845
					C20.635,30.121,20.087,34.677,20.897,39.266z M40.62,15.822c0.062-1.301,0.388-3.643,1.862-5.12
					c1.477-1.479,3.82-1.806,5.121-1.866c-0.062,1.3-0.39,3.642-1.867,5.12C44.26,15.433,41.918,15.761,40.62,15.822z
					 M24.283,27.336c1.558-3.187,3.988-5.221,6.84-5.725c2.026-0.356,4.691-0.19,7.315,0.457c0.797,0.197,1.617,0.296,2.436,0.298
					c0.012,0.001,0.021,0.002,0.03,0.002c0.007,0,0.013-0.001,0.018-0.001c0.824-0.001,1.646-0.103,2.45-0.301
					c1.718-0.422,3.452-0.639,5.011-0.639c0.827,0,1.603,0.061,2.304,0.184c2.853,0.503,5.282,2.537,6.842,5.725
					c1.611,3.298,2.096,7.41,1.361,11.572c-1.496,8.474-7.604,14.507-13.625,13.444c-0.21-0.035-0.43-0.087-0.653-0.146
					c-2.423-0.665-4.985-0.665-7.413,0c-0.223,0.062-0.442,0.11-0.653,0.146c-6.018,1.062-12.128-4.969-13.625-13.444
					C22.188,34.746,22.672,30.636,24.283,27.336z"/>
			</g>
		</g>
	</g>
</g>
<g id="Capa_1">
</g>
</svg>
