<?xml version="1.0" encoding="utf-8"?>
<!-- Generator: Adobe Illustrator 15.0.0, SVG Export Plug-In . SVG Version: 6.00 Build 0)  -->
<!DOCTYPE svg PUBLIC "-//W3C//DTD SVG 1.1//EN" "http://www.w3.org/Graphics/SVG/1.1/DTD/svg11.dtd">
<svg version="1.1" id="Ebene_1" xmlns="http://www.w3.org/2000/svg" xmlns:xlink="http://www.w3.org/1999/xlink" x="0px" y="0px"
	 width="175.323px" height="39.085px" viewBox="0 0 175.323 39.085" enable-background="new 0 0 175.323 39.085"
	 xml:space="preserve">
<g>
	<defs>
		<rect id="SVGID_1_" width="175.323" height="39.085"/>
	</defs>
	<clipPath id="SVGID_2_">
		<use xlink:href="#SVGID_1_"  overflow="visible"/>
	</clipPath>
	<path clip-path="url(#SVGID_2_)" fill="#36363B" d="M62.471,2.547L61.272,4.07c-1.349-1.373-3.247-2.197-5.17-2.197
		c-3.946,0-7.117,3.047-7.117,6.892c0,3.821,3.171,6.893,7.117,6.893c1.923,0,3.796-0.799,5.17-2.098l1.223,1.374
		c-1.723,1.623-4.071,2.697-6.493,2.697c-5.044,0-9.04-3.921-9.04-8.866C46.963,3.871,51.009,0,56.078,0
		C58.476,0,60.798,0.974,62.471,2.547"/>
	<path clip-path="url(#SVGID_2_)" fill="#36363B" d="M66.042,8.79c0,3.846,3.246,6.917,7.142,6.917s7.092-3.071,7.092-6.917
		s-3.196-6.892-7.092-6.892S66.042,4.944,66.042,8.79 M82.324,8.79c0,4.92-4.046,8.84-9.14,8.84c-5.119,0-9.165-3.92-9.165-8.84
		c0-4.945,4.046-8.79,9.165-8.79C78.278,0,82.324,3.87,82.324,8.79"/>
</g>
<polygon fill="#36363B" points="101.803,17.53 101.777,3.122 95.41,15.683 94.212,15.683 87.868,3.122 87.868,17.53 85.971,17.53 
	85.971,0.049 88.442,0.049 94.836,12.635 101.204,0.049 103.65,0.049 103.65,17.53 "/>
<g>
	<defs>
		<rect id="SVGID_3_" width="175.323" height="39.085"/>
	</defs>
	<clipPath id="SVGID_4_">
		<use xlink:href="#SVGID_3_"  overflow="visible"/>
	</clipPath>
	<path clip-path="url(#SVGID_4_)" fill="#36363B" d="M110.968,10.089h4.495c3.147,0,4.97-1.399,4.97-4.121
		c0-2.647-1.822-3.995-4.97-3.995h-4.495V10.089z M115.538,0.05c4.319,0,6.816,2.148,6.816,5.868c0,3.871-2.497,6.094-6.816,6.094
		h-4.57v5.519h-1.998V0.05H115.538z"/>
</g>
<path fill="#36363B" d="M130.972,2.322l-3.896,8.865h7.842L130.972,2.322z M126.227,13.11l-1.948,4.42h-2.122l7.842-17.481h2.071
	l7.817,17.481h-2.173l-1.947-4.42H126.227z"/>
<polygon fill="#36363B" points="155.12,17.53 144.632,3.496 144.632,17.53 142.634,17.53 142.634,0.049 144.706,0.049 
	155.195,14.109 155.195,0.049 157.168,0.049 157.168,17.53 "/>
<polygon fill="#36363B" points="168.681,17.63 166.708,17.63 166.708,11.712 159.94,0.149 162.013,0.149 167.682,9.265 
	173.275,0.149 175.323,0.149 168.681,11.637 "/>
<polygon fill="#00B6BE" points="61.996,38.86 61.971,28.496 58.45,37.137 55.054,37.137 51.532,28.496 51.532,38.86 46.962,38.86 
	46.962,21.354 52.531,21.354 56.752,31.044 60.972,21.354 66.541,21.354 66.541,38.86 "/>
<polygon fill="#00B6BE" points="75.432,25.35 75.432,28.097 83.698,28.097 83.698,32.093 75.432,32.093 75.432,34.865 
	84.797,34.865 84.797,38.859 70.238,38.859 70.238,21.354 84.547,21.354 84.547,25.35 "/>
<g>
	<defs>
		<rect id="SVGID_5_" width="175.323" height="39.085"/>
	</defs>
	<clipPath id="SVGID_6_">
		<use xlink:href="#SVGID_5_"  overflow="visible"/>
	</clipPath>
	<path clip-path="url(#SVGID_6_)" fill="#00B6BE" d="M93.237,34.789h2.622c2.373,0,3.972-1.848,3.972-4.645
		c0-2.822-1.724-4.694-4.221-4.694h-2.373V34.789z M95.71,21.354c5.669,0,9.415,3.471,9.415,8.739c0,5.271-3.821,8.767-9.59,8.767
		h-7.491V21.354H95.71z"/>
</g>
<rect x="107.822" y="21.354" fill="#00B6BE" width="5.193" height="17.507"/>
<g>
	<defs>
		<rect id="SVGID_7_" width="175.323" height="39.085"/>
	</defs>
	<clipPath id="SVGID_8_">
		<use xlink:href="#SVGID_7_"  overflow="visible"/>
	</clipPath>
	<path clip-path="url(#SVGID_8_)" fill="#00B6BE" d="M132.369,24.301l-2.996,3.546c-1.099-1.397-2.723-2.321-4.171-2.321
		c-2.371,0-4.171,1.923-4.171,4.494c0,2.572,1.8,4.521,4.171,4.521c1.35,0,2.973-0.799,4.171-2.023l2.996,3.197
		c-1.897,2.047-4.769,3.371-7.417,3.371c-5.318,0-9.239-3.846-9.239-9.015c0-5.096,3.996-8.866,9.415-8.866
		C127.774,21.204,130.597,22.403,132.369,24.301"/>
	<path clip-path="url(#SVGID_8_)" fill="#00B6BE" d="M149.201,23.152l-1.923,3.996c-1.798-1.024-4.345-1.948-5.819-1.948
		c-0.874,0-1.448,0.3-1.448,0.949c0,2.571,9.141,1.049,9.141,7.367c0,3.721-3.296,5.493-7.217,5.493
		c-2.973,0-6.219-1.049-8.416-2.771l1.947-3.946c1.799,1.524,4.721,2.672,6.519,2.672c1.099,0,1.798-0.374,1.798-1.173
		c0-2.647-9.14-0.974-9.14-7.143c0-3.371,2.872-5.52,7.241-5.52C144.557,21.129,147.303,21.929,149.201,23.152"/>
	<path clip-path="url(#SVGID_8_)" fill="#00B6BE" d="M32.517,38.878h1.222c2.727,0,4.959-2.23,4.959-4.959v-1.552h-6.181V38.878z
		 M23.027,13.609v8.055c0,0.794-0.64,1.435-1.433,1.435h-8.056v6.399h8.056c0.793,0,1.434,0.64,1.434,1.435v7.945h6.62v-7.945
		c0-0.795,0.639-1.435,1.434-1.435h7.616v-6.399h-7.616c-0.795,0-1.434-0.641-1.434-1.435v-8.055H23.027z M38.698,20.229V4.958
		C38.698,2.231,36.466,0,33.739,0H4.959C2.232,0,0,2.231,0,4.958v28.961c0,2.729,2.232,4.959,4.959,4.959h15.2v-6.511h-8.055
		c-0.795,0-1.434-0.64-1.434-1.435v-9.269c0-0.795,0.639-1.435,1.434-1.435h8.055v-8.055c0-0.794,0.64-1.434,1.435-1.434h9.488
		c0.794,0,1.435,0.64,1.435,1.434v8.055H38.698z"/>
</g>
</svg>
