<?xml version="1.0" encoding="utf-8"?>
<!-- Generator: Adobe Illustrator 15.0.0, SVG Export Plug-In . SVG Version: 6.00 Build 0)  -->
<!DOCTYPE svg PUBLIC "-//W3C//DTD SVG 1.1//EN" "http://www.w3.org/Graphics/SVG/1.1/DTD/svg11.dtd">
<svg version="1.1" id="Ebene_1" xmlns="http://www.w3.org/2000/svg" xmlns:xlink="http://www.w3.org/1999/xlink" x="0px" y="0px"
	 width="80px" height="60px" viewBox="0 0 80 60" enable-background="new 0 0 80 60" xml:space="preserve">
<g>
	<g id="Ebene_1_1_">
	</g>
	<g id="Capa_1">
	</g>
	<path fill="#00ACB6" d="M47.61,20.675c1.411,0,2.542,1.142,2.542,2.543c0,1.399-1.141,2.542-2.542,2.542
		c-1.41,0-2.542-1.142-2.542-2.542C45.068,21.817,46.21,20.675,47.61,20.675z"/>
	<circle fill="#00ACB6" cx="32.357" cy="23.217" r="2.542"/>
	<path fill="#00ACB6" d="M39.983,52.841c-12.503,0-22.677-10.172-22.677-22.678c0-12.506,10.173-22.68,22.677-22.68
		c12.506,0,22.678,10.173,22.678,22.68C62.661,42.669,52.489,52.841,39.983,52.841z M39.983,9.604
		c-11.334,0-20.556,9.221-20.556,20.559c0,11.336,9.221,20.558,20.556,20.558c11.336,0,20.558-9.222,20.558-20.558
		C60.541,18.826,51.319,9.604,39.983,9.604z"/>
	<path fill="#00ACB6" d="M39.983,44.094c-5.792,0-10.774-3.369-12.692-8.581l1.99-0.732c1.608,4.368,5.809,7.191,10.702,7.191
		c4.896,0,9.096-2.823,10.704-7.191l1.99,0.732C50.759,40.725,45.777,44.094,39.983,44.094z"/>
</g>
</svg>
