<?xml version="1.0" encoding="utf-8"?>
<!-- Generator: Adobe Illustrator 15.0.0, SVG Export Plug-In . SVG Version: 6.00 Build 0)  -->
<!DOCTYPE svg PUBLIC "-//W3C//DTD SVG 1.1//EN" "http://www.w3.org/Graphics/SVG/1.1/DTD/svg11.dtd">
<svg version="1.1" id="Ebene_1" xmlns="http://www.w3.org/2000/svg" xmlns:xlink="http://www.w3.org/1999/xlink" x="0px" y="0px"
	 width="80px" height="60px" viewBox="0 0 80 60" enable-background="new 0 0 80 60" xml:space="preserve">
<g id="Ebene_1_1_">
</g>
<g id="Isolationsmodus">
	<g>
		<g>
			<g>
				<path fill="#00ACB6" d="M58.438,7.629H51.45V6.63c0-0.551-0.447-0.999-0.998-0.999h-5.993c-0.936-1.244-2.416-1.997-3.99-1.997
					c-1.575,0-3.056,0.752-3.992,1.997h-5.993c-0.551,0-0.999,0.447-0.999,0.999v0.999h-6.989c-0.551,0-0.998,0.447-0.998,0.998
					v45.928c0,0.553,0.447,1,0.998,1h35.941c0.551,0,0.998-0.447,0.998-1V8.627C59.438,8.076,58.988,7.629,58.438,7.629z
					 M31.482,7.629h5.528c0.356,0,0.687-0.19,0.864-0.498c0.535-0.925,1.529-1.5,2.594-1.5c1.063,0,2.058,0.576,2.593,1.5
					c0.178,0.308,0.508,0.498,0.863,0.498h5.528v3.993h-17.97V7.629z M57.439,53.557H23.495V9.625h5.99v2.996
					c0,0.552,0.447,0.998,0.999,0.998h19.967c0.551,0,0.998-0.446,0.998-0.998V9.625h5.99V53.557z"/>
			</g>
		</g>
		<path fill="#00ACB6" d="M34.671,33.377c2.091,1.525,4.184,3.05,6.274,4.574c0.477,0.349,1.271,0.1,1.531-0.401
			c1.856-3.557,3.713-7.113,5.566-10.669c0.669-1.28-1.268-2.414-1.936-1.132c-1.855,3.556-3.711,7.112-5.565,10.669
			c0.513-0.134,1.021-0.27,1.533-0.402c-2.09-1.524-4.182-3.05-6.273-4.574C34.632,30.588,33.515,32.534,34.671,33.377
			L34.671,33.377z"/>
	</g>
</g>
<g id="Capa_1">
</g>
</svg>
